<svg xmlns="http://www.w3.org/2000/svg" width="600" height="600" viewBox="0 0 600 600"><rect x="0" y="0" width="600" height="600" fill="#101211"/><ellipse data-master-orbit="inner" cx="300" cy="300" rx="185" ry="185" transform="rotate(0 300 300)" fill="none" stroke="#B59A70" stroke-width="2.3" opacity=".72"/><ellipse data-master-orbit="ascending" cx="300" cy="300" rx="236" ry="116" transform="rotate(-38 300 300)" fill="none" stroke="#B59A70" stroke-width="2.3" opacity=".72"/><ellipse data-master-orbit="descending" cx="300" cy="300" rx="236" ry="116" transform="rotate(38 300 300)" fill="none" stroke="#B59A70" stroke-width="2.3" opacity=".72"/><circle cx="472.009" cy="368.103" r="3.2" fill="#F6C580"/><circle cx="162.137" cy="470.388" r="3.2" fill="#F6C580"/><g transform="rotate(-7 300 300) translate(145.9 166.6) scale(4.6)"><path d="M8 12H41L47 18L21 45H49V54H8V45L35 21H8Z" fill="#EDB466"/><path d="M47 9L52 4L59 11L54 16Z" fill="#F6C580"/></g></svg>