<svg xmlns="http://www.w3.org/2000/svg" viewBox="0 0 600 600" role="img" ><title>Zuaros full orbital emblem for dark backgrounds</title><ellipse cx="300" cy="300" rx="185" ry="185" transform="rotate(0 300 300)" fill="none" stroke="#B59A70" stroke-width="1.15" opacity="0.44"/><ellipse cx="300" cy="300" rx="236" ry="116" transform="rotate(-38 300 300)" fill="none" stroke="#B59A70" stroke-width="1.35" opacity="0.58"/><ellipse cx="300" cy="300" rx="236" ry="116" transform="rotate(38 300 300)" fill="none" stroke="#B59A70" stroke-width="1.35" opacity="0.42"/><ellipse cx="300" cy="300" rx="90" ry="235" transform="rotate(38 300 300)" fill="none" stroke="#B59A70" stroke-width="1.35" opacity="0.5"/><g><circle cx="472.009" cy="368.103" r="3.5" fill="#F6C580" opacity="1"/><circle cx="162.137" cy="470.388" r="2.7" fill="#F6C580" opacity="0.78"/><circle cx="359.599" cy="199.648" r="2.2" fill="#F6C580" opacity="0.62"/><circle cx="177.502" cy="493.144" r="1.6" fill="#F6C580" opacity="0.58"/></g><g transform="rotate(-7 300 300) translate(200 198) scale(3.2)"><path d="M8 12H41L47 18L21 45H49V54H8V45L35 21H8Z" fill="#EDB466"/><path d="M47 9L52 4L59 11L54 16Z" fill="#F6C580"/></g></svg>